# Blender v2.77 (sub 0) OBJ File: 'test_cube.blend'
# www.blender.org
mtllib test_cube.mtl
o Cube
v 1.000000 -1.000000 -1.000000
v 1.000000 -1.000000 1.000000
v -1.000000 -1.000000 1.000000
v -1.000000 -1.000000 -1.000000
v 1.000000 1.000000 -0.999999
v 0.999999 1.000000 1.000001
v -1.000000 1.000000 1.000000
v -1.000000 1.000000 -1.000000
vt 0.3182 0.9848
vt 0.0152 0.9848
vt 0.0152 0.6818
vt 0.3182 0.6818
vt 0.6515 0.3485
vt 0.6515 0.6515
vt 0.3485 0.6515
vt 0.3485 0.3485
vt 0.6514 0.0151
vt 0.6516 0.3181
vt 0.3486 0.3183
vt 0.3484 0.0152
vt 0.3181 0.0151
vt 0.3182 0.3181
vt 0.0152 0.3182
vt 0.0151 0.0152
vt 0.3182 0.3485
vt 0.3182 0.6515
vt 0.0152 0.6515
vt 0.0152 0.3485
vt 0.6818 0.3182
vt 0.6818 0.0152
vt 0.9848 0.0152
vt 0.9848 0.3182
vn 0.0000 -1.0000 0.0000
vn 0.0000 1.0000 0.0000
vn 1.0000 0.0000 0.0000
vn -0.0000 -0.0000 1.0000
vn -1.0000 -0.0000 -0.0000
vn 0.0000 0.0000 -1.0000
usemtl Material
s off
f 1/1/1 2/2/1 3/3/1 4/4/1
f 5/5/2 8/6/2 7/7/2 6/8/2
f 1/9/3 5/10/3 6/11/3 2/12/3
f 2/13/4 6/14/4 7/15/4 3/16/4
f 3/17/5 7/18/5 8/19/5 4/20/5
f 5/21/6 1/22/6 4/23/6 8/24/6
